<svg width="800" height="800" viewBox="0 0 161 27" fill="none" xmlns="http://www.w3.org/2000/svg">
<path fill-rule="evenodd" clip-rule="evenodd" d="M80.5121 27C88.0883 27 94.2283 20.9648 94.2283 13.5183C94.2283 6.07342 88.0883 0.0382358 80.5121 0.0382358C72.9369 0.0382358 66.7951 6.07342 66.7951 13.5183C66.796 20.9648 72.9369 27 80.5121 27ZM80.5121 20.989C76.8538 20.989 74.8962 17.6445 74.8962 13.5183C74.8962 9.39215 76.6404 6.04767 80.5121 6.04767C84.3831 6.04767 86.129 9.39215 86.129 13.5183C86.129 17.6445 84.1705 20.989 80.5121 20.989ZM20.2233 26.3767H23.7298C24.1964 26.3808 24.6508 26.2427 25.0189 25.9849C25.3871 25.727 25.6471 25.3646 25.7568 24.9568L26.5117 22.2762C26.6306 21.851 27.0384 21.5663 27.5252 21.5663H34.0948C34.5816 21.5663 34.9894 21.851 35.1083 22.2762L35.8623 24.9568C35.9721 25.3645 36.2322 25.7268 36.6003 25.9847C36.9684 26.2425 37.4228 26.3807 37.8893 26.3767H41.3958C41.7218 26.3766 42.0432 26.308 42.3344 26.1765C42.6256 26.0449 42.8786 25.8539 43.0732 25.6188C43.2677 25.3837 43.3985 25.111 43.455 24.8224C43.5115 24.5338 43.4921 24.2374 43.3986 23.9567L36.0367 1.831C35.9122 1.44121 35.6488 1.09895 35.287 0.856699C34.9253 0.61445 34.4851 0.485605 34.034 0.489935H27.5859C26.6453 0.489935 25.8522 1.02043 25.5832 1.831L18.2214 23.9567C18.1277 24.2373 18.1082 24.5338 18.1646 24.8224C18.2209 25.111 18.3516 25.3837 18.5461 25.6188C18.7406 25.854 18.9935 26.0449 19.2847 26.1765C19.576 26.3081 19.8974 26.3766 20.2233 26.3767ZM32.7966 16.305H28.8225C28.7479 16.304 28.6744 16.288 28.6076 16.2581C28.5409 16.2282 28.4824 16.1852 28.4366 16.1322C28.3908 16.0793 28.3588 16.0177 28.343 15.9522C28.3271 15.8866 28.3279 15.8187 28.3452 15.7534L30.5892 7.77336C30.6412 7.5908 30.977 7.5908 31.0282 7.77336L33.273 15.7534C33.2903 15.8186 33.2911 15.8865 33.2753 15.952C33.2596 16.0175 33.2276 16.079 33.1819 16.1319C33.1362 16.1848 33.0779 16.2279 33.0112 16.2578C32.9445 16.2878 32.8712 16.3039 32.7966 16.305ZM43.3951 13.5199C43.3951 20.9648 49.5369 27 57.1121 27C60.728 27 64.0166 25.6254 66.4662 23.3778C66.8975 22.983 66.8871 22.3433 66.4714 21.9345L63.7164 19.2298C63.1654 18.6907 62.3185 18.8459 61.731 19.353C60.3904 20.5139 59.3292 20.9898 57.1113 20.9898C53.2395 20.9898 51.4953 17.6453 51.4953 13.5191V13.5176C51.4953 9.39138 53.2395 6.0469 57.1113 6.0469C59.3292 6.0469 60.3904 6.522 61.731 7.68363C62.3185 8.19073 63.1654 8.34676 63.7164 7.8069L66.4714 5.10215C66.8871 4.69569 66.8975 4.05363 66.4662 3.65888C64.0166 1.41128 60.7271 0.0366764 57.1121 0.0366764C49.5369 0.0366764 43.3951 6.07186 43.3951 13.5168V13.5199ZM109.484 18.9793C109.484 20.5271 108.131 21.3713 106.292 21.3713C103.972 21.3713 102.471 20.1246 101.081 18.8452C100.345 18.1688 99.1128 18.1914 98.3353 18.8288L96.612 20.24C95.9395 20.7916 95.4327 21.7169 96.0054 22.3519C97.8667 24.4224 100.644 26.7738 107.343 26.7738C113.289 26.7738 117.004 23.047 117.004 19.03C117.004 15.7527 115.463 13.5846 111.109 11.5836L106.601 9.65897C104.684 9.20024 103.868 8.57691 103.868 7.45116C103.868 6.2552 104.8 5.52342 106.327 5.52342C108.123 5.52342 109.638 6.5259 111.003 7.51044C111.803 8.08775 112.981 7.95201 113.678 7.27406L115.479 5.5203C116.105 4.91101 116.336 3.89761 115.674 3.31874C113.503 1.42299 110.258 0 105.818 0C99.5354 0 95.8319 3.50285 95.8319 7.76009C95.8319 11.3488 97.7721 13.2133 101.988 14.9413L107.167 16.933C108.807 17.3902 109.484 17.9581 109.484 18.9793ZM156.489 10.3736H151.379C151.241 10.3737 151.105 10.3494 150.978 10.3022C150.851 10.255 150.736 10.1858 150.639 10.0985C150.542 10.0112 150.465 9.90748 150.412 9.79338C150.36 9.67928 150.333 9.55699 150.333 9.43351V7.55024C150.333 7.03066 150.801 6.61016 151.379 6.61016H158.909C159.183 6.61027 159.455 6.5617 159.709 6.46726C159.963 6.37281 160.194 6.23432 160.388 6.05971C160.582 5.8851 160.736 5.67779 160.841 5.44964C160.946 5.22148 161 4.97695 161 4.73001V2.37164C161 2.12471 160.946 1.88018 160.841 1.65202C160.736 1.42386 160.582 1.21656 160.388 1.04195C160.194 0.867341 159.963 0.728852 159.709 0.634402C159.455 0.539953 159.183 0.491392 158.909 0.491494H144.481C144.207 0.491494 143.935 0.540135 143.681 0.634641C143.427 0.729146 143.197 0.867663 143.003 1.04227C142.809 1.21688 142.655 1.42416 142.55 1.65226C142.445 1.88036 142.391 2.12481 142.392 2.37164V24.4973C142.392 24.9957 142.612 25.4737 143.003 25.8262C143.395 26.1788 143.927 26.377 144.481 26.3774H158.909C159.463 26.3774 159.995 26.1794 160.387 25.8268C160.78 25.4742 161 24.9959 161 24.4973V22.1374C161 21.6387 160.78 21.1605 160.387 20.8079C159.995 20.4553 159.463 20.2572 158.909 20.2572H151.379C151.241 20.2573 151.105 20.2331 150.978 20.1859C150.851 20.1387 150.736 20.0694 150.639 19.9821C150.542 19.8948 150.465 19.7911 150.412 19.677C150.36 19.5629 150.333 19.4406 150.333 19.3171V17.4339C150.333 16.9159 150.801 16.4938 151.379 16.4938H156.489C156.763 16.4939 157.035 16.4453 157.289 16.3509C157.543 16.2564 157.773 16.118 157.968 15.9434C158.162 15.7687 158.316 15.5614 158.421 15.3333C158.526 15.1051 158.58 14.8606 158.58 14.6137V12.2553C158.58 12.0082 158.526 11.7636 158.421 11.5353C158.316 11.307 158.162 11.0996 157.968 10.9248C157.774 10.7501 157.543 10.6114 157.289 10.5168C157.036 10.4223 156.763 10.3736 156.489 10.3736ZM127.106 26.3767H130.866C132.02 26.3767 132.958 25.5341 132.958 24.4965V7.54945C132.958 7.02988 133.424 6.60938 134.002 6.60938H138.225C138.779 6.60938 139.311 6.41129 139.703 6.0587C140.096 5.7061 140.316 5.22789 140.316 4.72924V2.37086C140.316 1.87221 140.096 1.394 139.703 1.0414C139.311 0.688806 138.779 0.490721 138.225 0.490721H119.746C119.472 0.490618 119.2 0.539179 118.946 0.633629C118.692 0.728079 118.462 0.866556 118.268 1.04116C118.073 1.21577 117.919 1.42308 117.814 1.65123C117.709 1.87939 117.655 2.12392 117.655 2.37086V4.72924C117.655 4.97617 117.709 5.2207 117.814 5.44885C117.919 5.67701 118.073 5.88431 118.268 6.05892C118.462 6.23353 118.692 6.37202 118.946 6.46647C119.2 6.56092 119.472 6.60948 119.746 6.60938H123.968C124.546 6.60938 125.014 7.02988 125.014 7.54945V24.4965C125.014 24.9951 125.235 25.4731 125.627 25.8256C126.019 26.1781 126.551 26.3763 127.106 26.3767ZM14.6039 20.2408H8.98706C8.70975 20.2408 8.44379 20.1418 8.2477 19.9655C8.05161 19.7892 7.94145 19.5501 7.94145 19.3008V2.37086C7.94145 1.87235 7.72124 1.39425 7.32925 1.04168C6.93726 0.689102 6.40557 0.490927 5.85109 0.490721H2.09036C1.53588 0.490927 1.00419 0.689102 0.612198 1.04168C0.220205 1.39425 -4.77331e-08 1.87235 0 2.37086V24.495C0 25.5341 0.937146 26.3751 2.09296 26.3735L12.9526 26.3642L14.6065 26.3611C15.1603 26.3606 15.6914 26.1625 16.0828 25.8103C16.4743 25.458 16.6942 24.9804 16.6942 24.4825V22.121C16.6943 21.8741 16.6404 21.6296 16.5354 21.4015C16.4304 21.1734 16.2764 20.9662 16.0823 20.7916C15.8882 20.617 15.6577 20.4785 15.404 20.384C15.1503 20.2895 14.8784 20.2408 14.6039 20.2408Z" fill="#FCFCFC"/>
</svg>
