<svg width="100" height="20" viewBox="0 0 100 20" fill="none" xmlns="http://www.w3.org/2000/svg">
<path d="M100 9.06119V6.53989H96.9775V2.62011L96.8757 2.65253L93.9809 3.56994V6.53989H89.5001V4.88554C89.5001 4.11514 89.6664 3.52556 89.9941 3.13238C90.3196 2.74389 90.7852 2.54644 91.3788 2.54644C91.8057 2.54644 92.2477 2.65063 92.6923 2.85605L92.8038 2.90754V0.252234L92.7514 0.232298C92.3365 0.0778374 91.772 0 91.0727 0C90.1911 0 89.39 0.198667 88.6915 0.592534C87.9924 0.986921 87.4425 1.54998 87.0574 2.26595C86.6735 2.98104 86.4787 3.80692 86.4787 4.72085V6.53989H84.3741V9.06119H86.4787V19.6829H89.5001V9.06119H93.9809V15.8112C93.9809 18.5911 95.2467 20 97.7431 20C98.1535 20 98.5851 19.9501 99.026 19.8525C99.4747 19.7524 99.7803 19.6524 99.9602 19.5456L100 19.5214V16.9767L99.8772 17.0609C99.7132 17.1743 99.509 17.2667 99.2695 17.3353C99.029 17.4054 98.8282 17.4406 98.6727 17.4406C98.0878 17.4406 97.6553 17.2773 97.3867 16.9552C97.1152 16.6301 96.9775 16.0615 96.9775 15.2663V9.06119H100ZM77.627 17.4408C76.5304 17.4408 75.6658 17.0641 75.0565 16.3221C74.4435 15.5764 74.1329 14.5132 74.1329 13.1624C74.1329 11.7687 74.4435 10.678 75.0568 9.91902C75.6665 9.1651 76.5228 8.7825 77.6024 8.7825C78.65 8.7825 79.4839 9.14793 80.0812 9.86927C80.6817 10.5942 80.9862 11.6763 80.9862 13.0863C80.9862 14.5135 80.6997 15.6098 80.1348 16.3431C79.5738 17.071 78.7302 17.4408 77.627 17.4408ZM77.7616 6.22323C75.6693 6.22323 74.0076 6.85824 72.8229 8.11074C71.6389 9.36342 71.0384 11.0968 71.0384 13.2634C71.0384 15.3212 71.6245 16.9764 72.7804 18.1822C73.9363 19.3886 75.5094 19.9997 77.4555 19.9997C79.4836 19.9997 81.1123 19.3559 82.2966 18.086C83.4808 16.8174 84.0807 15.1005 84.0807 12.9845C84.0807 10.8945 83.5177 9.22698 82.4069 8.02909C81.2955 6.83067 79.7323 6.22323 77.7616 6.22323ZM66.1671 6.22316C64.7439 6.22316 63.5668 6.60021 62.6675 7.34374C61.7628 8.0916 61.3039 9.07263 61.3039 10.2596C61.3039 10.8766 61.403 11.4247 61.5979 11.8895C61.7941 12.356 62.0976 12.7665 62.5008 13.1111C62.9011 13.453 63.5186 13.8112 64.3373 14.1754C65.0253 14.4687 65.5385 14.717 65.8645 14.9125C66.1832 15.1041 66.4094 15.2968 66.5371 15.4844C66.6611 15.668 66.7242 15.9192 66.7242 16.2295C66.7242 17.1124 66.0859 17.542 64.7724 17.542C64.2852 17.542 63.7295 17.4367 63.1207 17.2289C62.5115 17.0214 61.9423 16.723 61.4292 16.3404L61.3039 16.2473V19.2605L61.3499 19.2827C61.7775 19.487 62.3164 19.6594 62.9516 19.7951C63.5857 19.9308 64.1617 20 64.6623 20C66.2066 20 67.4502 19.621 68.3576 18.8732C69.2708 18.1201 69.7337 17.116 69.7337 15.8878C69.7337 15.002 69.4845 14.2421 68.9933 13.6295C68.5057 13.0217 67.6592 12.4638 66.4784 11.9706C65.5377 11.5795 64.9351 11.2548 64.6865 11.0057C64.4469 10.7649 64.3252 10.4245 64.3252 9.99333C64.3252 9.61107 64.4754 9.30493 64.7838 9.05685C65.0946 8.80757 65.527 8.68084 66.0695 8.68084C66.5729 8.68084 67.088 8.76319 67.6001 8.92458C68.112 9.08598 68.5616 9.30215 68.9369 9.56669L69.0603 9.65407V6.79576L69.0129 6.77461C68.6666 6.62084 68.2101 6.48926 67.6557 6.38248C67.1034 6.27673 66.6025 6.22316 66.1671 6.22316ZM53.4274 17.4408C52.3311 17.4408 51.4662 17.0641 50.857 16.3221C50.2439 15.5764 49.9338 14.5135 49.9338 13.1624C49.9338 11.7687 50.2442 10.678 50.8577 9.91902C51.4669 9.1651 52.323 8.7825 53.4031 8.7825C54.4504 8.7825 55.2843 9.14793 55.8817 9.86927C56.4822 10.5942 56.7868 11.6763 56.7868 13.0863C56.7868 14.5135 56.5001 15.6098 55.9351 16.3431C55.3742 17.071 54.5309 17.4408 53.4274 17.4408ZM53.5623 6.22323C51.4695 6.22323 49.8078 6.85824 48.6236 8.11074C47.4396 9.36342 46.8388 11.0968 46.8388 13.2634C46.8388 15.322 47.4252 16.9764 48.5811 18.1822C49.737 19.3886 51.3099 19.9997 53.2562 19.9997C55.2838 19.9997 56.913 19.3559 58.0973 18.086C59.2811 16.8174 59.8814 15.1005 59.8814 12.9845C59.8814 10.8945 59.3183 9.22698 58.2072 8.02909C57.0955 6.83067 55.5326 6.22323 53.5623 6.22323ZM42.2525 8.81589V6.53989H39.268V19.6826H42.2525V12.9596C42.2525 11.8163 42.5027 10.8773 42.9964 10.1679C43.4838 9.46701 44.1335 9.11181 44.9266 9.11181C45.1953 9.11181 45.4971 9.15775 45.8239 9.24859C46.1474 9.3389 46.3817 9.43685 46.5199 9.54L46.6453 9.63413V6.51735L46.5969 6.49585C46.3189 6.37346 45.9258 6.31175 45.4283 6.31175C44.6784 6.31175 44.0071 6.56138 43.4323 7.05285C42.9277 7.48485 42.5629 8.07721 42.2841 8.81589H42.2525ZM33.9234 6.22316C32.5543 6.22316 31.3329 6.5274 30.294 7.12687C29.2531 7.72773 28.4482 8.58567 27.9004 9.6766C27.3552 10.7649 27.0784 12.0362 27.0784 13.4537C27.0784 14.6955 27.3468 15.8351 27.8773 16.8394C28.4082 17.8453 29.1596 18.6324 30.1106 19.1783C31.0603 19.7235 32.158 20 33.3733 20C34.7916 20 36.0025 19.7062 36.9735 19.127L37.0127 19.1036V16.2713L36.8873 16.3661C36.4475 16.6979 35.956 16.9628 35.4272 17.1537C34.8997 17.3443 34.4187 17.4407 33.9972 17.4407C32.826 17.4407 31.886 17.0611 31.2036 16.3129C30.5196 15.5635 30.1729 14.5114 30.1729 13.1873C30.1729 11.8548 30.5345 10.7757 31.2473 9.97928C31.9577 9.18531 32.8995 8.7826 34.0464 8.7826C35.0274 8.7826 35.9833 9.12672 36.8876 9.80627L37.0127 9.90041V6.91607L36.9723 6.89249C36.6319 6.69521 36.1679 6.53226 35.5915 6.40865C35.0178 6.2854 34.4567 6.22316 33.9234 6.22316ZM25.0229 6.53992H22.0384V19.6826H25.0229V6.53992ZM23.5611 0.941016C23.0699 0.941016 22.6415 1.1142 22.2896 1.45745C21.9361 1.80173 21.7567 2.23512 21.7567 2.74653C21.7567 3.24995 21.9339 3.67537 22.2839 4.01047C22.6316 4.34453 23.0614 4.5139 23.5611 4.5139C24.0606 4.5139 24.4921 4.34453 24.844 4.01099C25.1983 3.67537 25.3778 3.24995 25.3778 2.74653C25.3778 2.25298 25.2031 1.82392 24.8586 1.47131C24.5145 1.1194 24.0779 0.941016 23.5611 0.941016ZM16.1147 5.57027V19.6825H19.1605V1.34348H14.9451L9.58684 14.9652L4.38709 1.34348H0V19.6825H2.8622V5.56888H2.9606L8.45137 19.6825H10.6114L16.0164 5.57027H16.1147Z" fill="#FCFCFC"/>
</svg>
